<svg xmlns="http://www.w3.org/2000/svg" viewBox="0 0 1294.22 635.51">
  <title>Asset 2</title>
  <g id="Layer_2" data-name="Layer 2">
    <g id="path">
      <polygon points="439 105 596 105 541.05 157.07 439 105" style="fill: #020202;opacity: 0.1"/>
      <rect x="439" width="151.16" height="105" style="fill: #a02531"/>
      <path d="M0,167l35,89s134-24,241,39c74.57,43.9,86,90,158,164S618,627,852,635c200.89,6.87,364-57,418-144s15-162-90-218S949,199,847,166c-95.95-31-152.43-47.38-195-94C610,26,612,0,612,0H439s-4.9,77.37,90,159c93,80,336.8,123.6,416,150,84,28,115,57,121,87s-38.55,85.66-139,98c-114,14-201-23-278-93C539,301,508.52,214.67,312,172,137,134,0,167,0,167Z" style="fill: #6ec0c9"/>
      <path d="M304.52,170.42C133.11,134.94,0,167,0,167l35,89s73.24-13.11,154.66,5.51Z" style="fill: #d5343b"/>
      <path d="M603.21,356.16c-40.27-41.9-72.41-80.26-117.4-112.51l-189.38,64.5c47.13,33.22,66,69.07,107.84,118.18Z" style="fill: #21495b"/>
      <path d="M868.86,496.73c-56-1.87-105.1-17.33-150-43.65L547.53,552.27c69.7,42.86,164.94,77.64,302.48,82.65Z" style="fill: #d5343b"/>
      <path d="M1270,491c12.55-20.22,20.07-39.8,22.91-58.63l-228.46-18.59c-7.22,22.4-33.43,49.79-79.84,66.74L1143.17,587.6C1202.22,562.42,1246.47,528.91,1270,491Z" style="fill: #21495b"/>
      <path d="M1180,273c-52.26-27.87-109.73-46.33-166.85-61.91L891.84,293.94c21.45,5.58,39.69,10.57,53.16,15.06,42.15,14,70.95,28.35,89.95,42.9l179.17-58.46A379.35,379.35,0,0,0,1180,273Z" style="fill: #d5343b"/>
      <path d="M533.23,162.53c40.89,33.13,107.52,59.9,176.58,81.73l130.45-80.43c-53.75-17.35-94.82-30.25-128-47.08Z" style="fill: #21495b"/>
      <path d="M439,0s-2,32.34,22.16,77.27L645,64.08C610.23,23,612,0,612,0Z" style="fill: #d5343b"/>
    </g>
  </g>
</svg>
