<svg id="Layer_1" data-name="Layer 1" xmlns="http://www.w3.org/2000/svg" xmlns:xlink="http://www.w3.org/1999/xlink" viewBox="0 0 235.96 339.06"><defs><clipPath id="clip-path" transform="translate(0.07)"><path d="M180.56,276l-10.95,4.05,10.95,6.16" style="fill:none"/></clipPath></defs><title>tree-min</title><g id="tree"><path d="M6,333V108.05q0-3.56,0-7.11a82.43,82.43,0,0,1,6.14-31.18A93.32,93.32,0,0,1,34.62,37.52,113.06,113.06,0,0,1,69.87,15.18a127.92,127.92,0,0,1,43.78-9.11,129.91,129.91,0,0,1,45.17,6.49,116.15,116.15,0,0,1,37.06,20.3A96.7,96.7,0,0,1,220.74,63.4a82.84,82.84,0,0,1,9.06,37.35q0,2.69,0,5.38V330.55a7.19,7.19,0,0,1,0,2.27c-.13.27-.17.18-.58.18H6Z" transform="translate(0.07)" style="fill:#21495b"/><path d="M117.9,12A122.56,122.56,0,0,1,161,19.73a108.41,108.41,0,0,1,34.46,20.75,88.23,88.23,0,0,1,22.24,30.68,76.28,76.28,0,0,1,6.09,29.77q0,3.36,0,6.73v217.1c0,.46.23,1.68,0,2.1-.13.23-.25.15-.62.15H12.48c-.45,0-.36.08-.48-.22a8,8,0,0,1,0-2.27V107.25q0-3.19,0-6.38a76.3,76.3,0,0,1,6.69-31.08A89,89,0,0,1,41.41,39.53a109.12,109.12,0,0,1,35-20.38A122.75,122.75,0,0,1,117.9,12m0-12A134.86,134.86,0,0,0,71.66,8.07,121,121,0,0,0,34,30.06,101.71,101.71,0,0,0,8.78,62.59,88.53,88.53,0,0,0,0,100.76q0,2.92,0,5.85,0,7.7,0,15.4,0,11.41,0,22.82,0,14,0,28Q0,188.43,0,204q0,16.15,0,32.31,0,15.61,0,31.22,0,14,0,27.93v42c0,.21-.16,1.34,0,1.49s1.18,0,1.37,0H234.65c.18,0,1,.12,1.16,0s0-1.45,0-1.7V106.2c0-1.9,0-3.81,0-5.71A88.54,88.54,0,0,0,226.25,61a102.52,102.52,0,0,0-25.72-32.06,121.67,121.67,0,0,0-38-21.44A135.07,135.07,0,0,0,117.9,0Z" transform="translate(0.07)" style="fill:#fff"/><path d="M169,239a82.25,82.25,0,0,0-34.34,9.31,68,68,0,0,0-17.16,12.82A33,33,0,0,0,115,264a154.15,154.15,0,0,0-21.69-14.18c-14.66-8.11-30.94-14.65-47.82-15.71-8.3-.52-17.09-.15-25.06,2.45a30.06,30.06,0,0,0-7.07,3.29c-.37.24-1.19.63-1.36,1a1.81,1.81,0,0,0,0,.54v83.14a9.19,9.19,0,0,0,0,2.14c.07.26-.05.19.1.29s.69,0,.86,0H222c.25,0,1.61.19,1.79,0s0-.95,0-1.1V250.4a1.76,1.76,0,0,0,0-.57c-.24-.47-1.93-.9-2.45-1.12a132.34,132.34,0,0,0-23.24-7.29A111.12,111.12,0,0,0,169,239Z" transform="translate(0.07)" style="fill:#fff"/><path d="M143.7,319.45,127,319.29,100.32,319,94.16,319l5.14-20.27L102,288.2c.09-.37.12-1,.42-1.14a3.14,3.14,0,0,1,1,0l1.82-.05,25.53-.76,2-.06a4.9,4.9,0,0,1,1.21,0c.41.11.33.28.48.79l2.74,9.6L143.57,319Z" transform="translate(0.07)" style="fill:#d5343b"/><path d="M192.29,214.38l19.39,3.76,2.76.53-3.64-8.34-8.74-20-10.57-24.2-9.11-20.85-3-6.9-.94-2.15c-.1-.23-.53-.87-.49-1.13,0,0,0-.11-.06-.14l19.56.65,2.77.09-8.28-9.79-19.69-23.28-23.7-28L128.15,50.51l-6.52-7.71-2-2.33c-.19-.23-.86-.77-.91-1.08s.46-.57.69-.79a1.3,1.3,0,0,1-.19.22c0-.08-.14-.14-.18-.22,0,1-1.4,2.13-2,2.88l-5.82,7L92,71.48l-23.39,28L48.32,123.71l-6.72,8-2.07,2.47c-.28.34-.95.87-1.09,1.3,0,.06-.1.12-.14.17H59l-3.6,8-8.56,19L36.36,186l-9,20-3,6.61-.92,2c-.1.23-.51.82-.48,1.07,0,0,0,.11-.06.14l17.51-3.75,2.5-.53-2.14,7.77-5.11,18.56L29.5,260.4,24.16,279.8l-1.76,6.41-.56,2c-.06.2-.36.84-.29,1,0,0,0,.1,0,.13l5.24,0,14.26.05,21.09.08,25.73.09,28.08.1,28.44.1,26.52.1,22.33.08,16.17.06,5,0a13.63,13.63,0,0,0,2.61,0,1.71,1.71,0,0,1,.33,0l-2.49-7.54-6-18.11-7.23-21.9-6.22-18.85-3-9.22Z" transform="translate(0.07)" style="fill:#6ec0c9"/><path d="M77.61,145.29c-3.74,10.52-1.42,23.17,7,30.8A22.7,22.7,0,0,0,113,177.67a28.19,28.19,0,0,0,10.5-14.94c3.87,8.4,13.18,13.35,22.19,10.3,8.69-2.93,14.08-12,14.08-20.9a7.92,7.92,0,0,0-.11-2.32c-.17-.49,0-.38-.52-.47l-.73-.13q-1.5-.27-3-.5c-2.13-.33-4.27-.62-6.42-.88-4.65-.56-9.31-1-14-1.31-9.88-.71-19.79-1.05-29.7-1.22Q91.47,145.06,77.61,145.29Z" transform="translate(0.07)" style="fill:#fff"/><path d="M89.21,149.57a10.1,10.1,0,1,1,6.91,10.82A10.19,10.19,0,0,1,89.21,149.57Z" transform="translate(0.07)" style="fill:#21495b"/><path d="M130.27,151.27a9.06,9.06,0,1,1,6.28,9.73A9.14,9.14,0,0,1,130.27,151.27Z" transform="translate(0.07)" style="fill:#21495b"/><path d="M164.55,143.46c-.18.39-.75.79-.39,1.1A4.83,4.83,0,0,0,164.55,143.46Z" transform="translate(0.07)" style="fill:#21495b"/><path d="M160.94,144.18a.85.85,0,0,1,.35,0C161.16,144,161,144,160.94,144.18Z" transform="translate(0.07)" style="fill:#21495b"/><path d="M156,140.05a.53.53,0,0,1-.25.23A.41.41,0,0,0,156,140.05Z" transform="translate(0.07)" style="fill:#21495b"/><path d="M153.36,140.85c-.2.38-.23.93-.73,1.05.72.21,1-.39,1.6-.43s.34.59-.12.71c-.22.06-.89-.07-.6.45.39.71,1.83-.55,2-1l.8,1c0-.43.1-1.68-.43-1.57-.27.05-.3.53-.61.36-.55-.29.25-1.09.52-1.21-.44.18-1-.48-1.31-.71-.5-.36-1.17-.77-1.78-.42-1,.59-.75,2.28-1.68,3Z" transform="translate(0.07)" style="fill:#21495b"/><path d="M151.08,140.47l-.09-.61,0,.8Z" transform="translate(0.07)" style="fill:#21495b"/><path d="M146.5,140.4a2.29,2.29,0,0,0-.42.24c-.29.27-.27.06-.1.47a2,2,0,0,0,1.27,1c1.12.31,1.61-.15,2.48-.75a2.22,2.22,0,0,1,.21.75c0-.45.74-1.63-.15-1.76-.54-.08-.91.74-1.35.91a.65.65,0,0,1-.92-.55c0-.55.54-.71.27-1.4.41.07.65.45,1.07.54-.77-1.43-1.89-.48-2.91,0C146.13,140.06,146.15,140.49,146.5,140.4Z" transform="translate(0.07)" style="fill:#21495b"/><path d="M149.95,142.15c.08.38.2.66.6.25C150.11,142.45,150,142.34,149.95,142.15Z" transform="translate(0.07)" style="fill:#21495b"/><path d="M146,139.91a.29.29,0,0,0-.35,0C145.67,140,145.79,140,146,139.91Z" transform="translate(0.07)" style="fill:#21495b"/><path d="M146.13,141.6l-.79-.2.27.67C145.81,141.94,146.12,141.91,146.13,141.6Z" transform="translate(0.07)" style="fill:#21495b"/><path d="M118.81,136.85v.37a3.47,3.47,0,0,0,.36-.45A.43.43,0,0,1,118.81,136.85Z" transform="translate(0.07)" style="fill:#21495b"/><path d="M115.53,137.67v-.13S115.42,137.65,115.53,137.67Z" transform="translate(0.07)" style="fill:#21495b"/><path d="M122.18,141a.72.72,0,0,0-.34-.08Z" transform="translate(0.07)" style="fill:#21495b"/><path d="M123.26,137.16a6.89,6.89,0,0,0,.86,1C124,137.74,124,137.42,123.26,137.16Z" transform="translate(0.07)" style="fill:#21495b"/><path d="M130.73,137.85c-.46-.07-.63.2-.29.67C130.67,138.38,130.56,138.11,130.73,137.85Z" transform="translate(0.07)" style="fill:#21495b"/><path d="M116.65,137.17l-.34.21,1.25-.43Z" transform="translate(0.07)" style="fill:#21495b"/><path d="M110.5,137.6l-.37.44A.75.75,0,0,0,110.5,137.6Z" transform="translate(0.07)" style="fill:#21495b"/><path d="M97.76,138.45a2.34,2.34,0,0,0-.18-.39l-.39.75Z" transform="translate(0.07)" style="fill:#21495b"/><path d="M88.64,137.77l-.9.23.57.31A.63.63,0,0,1,88.64,137.77Z" transform="translate(0.07)" style="fill:#21495b"/><path d="M67.23,150.37c.82-.42.45-.57-.18-.82l-1.13-.44C66.36,149.53,66.79,150,67.23,150.37Z" transform="translate(0.07)" style="fill:#21495b"/><path d="M65.92,149.11l-.64-.62a1,1,0,0,0-.18.29Z" transform="translate(0.07)" style="fill:#21495b"/><path d="M73.52,148.69a2.1,2.1,0,0,0,.48-.06C74.16,148.37,73.9,148.55,73.52,148.69Z" transform="translate(0.07)" style="fill:#21495b"/><path d="M83.24,138a2.64,2.64,0,0,0-.46-.05,2,2,0,0,0,.07.46Z" transform="translate(0.07)" style="fill:#21495b"/><path d="M78.38,149.89v-.53A1,1,0,0,0,78.38,149.89Z" transform="translate(0.07)" style="fill:#21495b"/><path d="M91.47,150.15h-.28A.24.24,0,0,0,91.47,150.15Z" transform="translate(0.07)" style="fill:#21495b"/><path d="M109.07,149.25l.76.9-.06-.75A.54.54,0,0,1,109.07,149.25Z" transform="translate(0.07)" style="fill:#21495b"/><path d="M109.77,149.4a1.68,1.68,0,0,0,.47-.35C109.95,149,109.75,149.12,109.77,149.4Z" transform="translate(0.07)" style="fill:#21495b"/><path d="M126,149.64a.94.94,0,0,0,.85.06A.59.59,0,0,0,126,149.64Z" transform="translate(0.07)" style="fill:#21495b"/><path d="M126.53,149.07c.14,0,.29.07.44.1l-.38-.3Z" transform="translate(0.07)" style="fill:#21495b"/><path d="M170,149.79a1.88,1.88,0,0,0-1.55-.32l-.29-2.13a6,6,0,0,0-.17-1.23c-.19-.49-.46-.51-1-.69a1.31,1.31,0,0,0,.59-.82c-.57-.12-1.22.73-1.76.24.33-.49,1-.44,1.36-.89s-.2-.59-.6-.49c-.23.05-.77.47-.95,0-.07-.17.22-.79.27-1a5,5,0,0,0-.64.08c-.51.14-.45-.08-.45.58a6.22,6.22,0,0,0,0,1.74,3.85,3.85,0,0,1-1.2-.22c-.54-.39.22-.58.12-1-.5.72-.45.91-1.31.77.3-.06.31-.34.25-.6-.23.41-.19.49-.57.54a4.63,4.63,0,0,1-1.12-.16l.05-.06h-.34A.93.93,0,0,1,161,143c.45-.16.61.26.89.39.94.43.2-.94-.19-1-1-.2-1.4,1.57-2.1,1.73a7.41,7.41,0,0,1-2.06-.25c.35-1,1.5.39,1.77-.59a1.57,1.57,0,0,1-1.13-2,3.32,3.32,0,0,0-1,.35c-.48.46-.1,1.75.18,2.22-13-1.5-26.08-2.08-39.12-2.75a7.4,7.4,0,0,1,2.59-.44c.85,0,1.56.44,2.43.42a8.89,8.89,0,0,0,1.58-.24,4.62,4.62,0,0,1,1.44,0c1,.11,2.1.15,3.15.19a59.86,59.86,0,0,1,6.27.38c.51.07,1,.23,1.54.27s.25.12.5-.14a5.05,5.05,0,0,0,.6-1.19c.14.63,1,.21.84,1-.21-.18-.5-.05-.74-.06.83,1.32,2.4,0,3.52.59-.15-.36-.26-1.51.15-1.74-.07.58.07.71.54.86s.61.25.91.81c.65,1.17.45-1.06,1.32-.79.15-.73-1.59-.94-1.09-1.45.26-.26.53.11.77,0,.63-.37-.56-.53-.72-.53-2.51-.09-5,1.3-7.43,1.61l.35-.87c-1.59.58-3.84.4-4.89-1.09.12.48-.73.27-1,.28-.7,0-1.08.33-1,1.08a1.72,1.72,0,0,0-1-.59c-.13.45-.1.77-.59.43s-.39-.82-1-.82c.45.76-.13,1.09-.41,1.75-.88-1-1.9-1.76-2.84-2.65a2.16,2.16,0,0,0,.4,1c-.65-.38-.42.71-.76.73-.63,0-.21-1.29-.33-1.5-.47-.81-1.62,1.51-2.33.83l.23.87a3.73,3.73,0,0,1-1.77-.42,3.29,3.29,0,0,0-.79-.2c-.39,0-.57.17-.66-.29-.16-.84,1.19-.77,1.63-1.13-.25-.29-.74-.34-.88-.74a25.3,25.3,0,0,1-2.08,1.88c.55-1.11-.45-1.23-1.25-1.44a.75.75,0,0,0,1,.77c-.1.7-.92.57-1.3,1,.67.44,0,.9.11,1.49l-2.44-.11c.17-.06,1.21-.14,1.26-.21s0-.44-.05-.54c0-.41-.14-.86.44-.88-.4-.14-.14-1-.12-1.27-.62.38-1.45.27-1.93.86-.28-.44.16-.49-.12-.94-.35.3-.77.91-.82.3,0-.15.37-.59-.16-.54-.07,0-.46.53-.59.59a1.33,1.33,0,0,1-.83.12c.07-.07.11-.17.19-.24-.64.33-1.15.05-1,1.07l-.52-1.19.06.8c-1.35-.38-1.85-2.24-3.49-1.37.37.23,0,.65-.22.81.65.54,1-.58,1.59-.65,0,.59-.91,1.47-.5,2-.34-.29-.74-.25-1.11-.44s-.44-.59-.66-1q.08-.45-.34-.34a1.78,1.78,0,0,0-.49.08c-.22.06-.42.18-.64.25s-1.38.31-1.21-.32c-.11.56-.24.43-.64.34s-.76-.17-1.11.35c.21.11.54.2.56.42,0,.39-.44.46-.72.52a.58.58,0,0,0-.07-.47c-.2,1.26-1.82,1.25-2.75,1.21-.3,0-.88.07-1.08-.11s-.37-1.08-.5-1.43c.32.11.68,0,.63.45a1.31,1.31,0,0,0,0-1.54c.79-.2,1.17.14,1.76-.6a1,1,0,0,0-1.4-.13,1.25,1.25,0,0,1-1.6,0l-.54,2c-.58-.2.08-.9-.42-1.25-.69.6.63,1.55,0,2.34-.38-.54-.85.24-1.31.14a3.79,3.79,0,0,0,0-1.82c-.28.34-1-.32-1.31-.36.67.51.06.4-.17.75s0,.19,0,.45.21.24-.06.59a.87.87,0,0,1-.43.32,2.31,2.31,0,0,1-.85,0c-.4-.34.26-.4.39-.5s.31-.07.22-.42c0-.18-.13-.19-.24-.32-.27-.31-.55-.29-.62-.78-.66.82-1.83,1-2.72,1.47-.68.36-1.84,1-1.34-.57-.58-.21-.6.86-.89,1a3.85,3.85,0,0,1-1.25,0c-.6,0-.43,0-.74-.41s-1-.9-1.18-1.49c-1.46,1.49-1.57-.92-2.74-1.22a.94.94,0,0,0-1,.38c-.18.42.34.57.34.93s-.1.23-.45.34-.47.26-.7.23c-.79-.1-.16-.94.35-.71-.15-1-.75,0-1.23-.65,0,.44.35.41-.14.56-.15,0-.35,0-.51,0s-.45.32-.71.41c-.5.18-1-.27-1.39-.17s-.56.78-.55,1.11c-.7-.63-1.09-1.42-1.86-2a21.43,21.43,0,0,1,.41,2.24,3.19,3.19,0,0,1-1-.25,3.25,3.25,0,0,0-1.07,0c-.28,0-.72-.19-.9-.15s-.4.37-.51.46c0-.45-.27-.18.05-.53.17-.18.71-.43.95-.3,0-.76-.5-.55-1-.41s-.82,0-.73.66c.05.36.68,1.38.4,1.64-.1.1-1-.2-1.18-.23a4.15,4.15,0,0,1,.24,1.8c-.21.72-.52.68-1.07.43.53,1.31.21,2.67.2,4,0,.56.13.72-.21,1.09a4.3,4.3,0,0,1-.61.45l.53.51c.44-.73.9-1.6,1.77-.71-1.19,0-.84.5-.7,1.46a3.18,3.18,0,0,0,.92-.39c.35-.26.69-.93,1.25-.69.92.4-.68.92-.28,1.6.17-1,.54-.32,1.12-.68-.08.9,1.14.31.87,1.33l2-2c.3.53.84.52,1.34.33a.41.41,0,0,1-.46-.48c0-.41,0-.13.26-.23a3,3,0,0,1,1.22,0c.17.09.26.7.38,1a6.51,6.51,0,0,1,.67,1.44c1.1-.49,1.75-1.55,2.77-2.15v1.16a3.87,3.87,0,0,1,1-1.47c.3-.14.81.07,1.13,0,0,.8-.56,1.47-.56,2.27l.74-.59c-.2.4.42.47.23.87,1.18-1.27,2.06.47,3.34-.12-.37-.09-.92,0-.73-.53a.68.68,0,0,1,.51-.37c.42-.06.29.22.59.54a1.66,1.66,0,0,0,.57.37c.44.19.41.21.75-.13s.73-1.38,1.51-1.38c-.17,1.16,1.43.76,1.57,1.75.13-.94.94-.61,1.56-.9.33-.15.31-.54.83-.38s.58.64.11.87a3,3,0,0,1,.45,0,.26.26,0,0,1-.08.28c.31,0,.33-.48.62-.49.76,0-.05.6-.21.69,1,.21,1.93-1.87,2.79-.75.27-.89,1.41-.74,1.17-2,.21.3.18.7.37,1a.68.68,0,0,0,.34.34c.39.14.28-.08.53-.2.41-.18.29-.18.73-.05s.53.3.86,0c-.38.49-.46,1-.82,1.46.43.34,1.08-.29,1.43-.48a1.83,1.83,0,0,1,.85-.33c.56,0,.36.41.55.87.37-.35.9-1.26,1.26-.36v-.8c.84.48,1.83.27,2.52,1.07l1-1.52c1,1.34,2.39.54,3.3-.41.38-.39.5-.52,1.07-.43.77.11.62.48.11.95.4,0,.78.43,1.19.39s.58-.84,1-.74.26.75.48,1,.47-.12.89-.27c1.36-.48,3.43,1.46,3.87-.77a6.82,6.82,0,0,1-1.21-.32l1.63.06c-.08.76-.28,1.35.67,1.55.76.16,1.46-.38,2.09-.69a1.4,1.4,0,0,1,1.87.17c.34.31.11.31.57.3a3.48,3.48,0,0,0,1.23-.49c.2-.1,1.25-.91,1.1-.28a2.73,2.73,0,0,1,1.84-.14c.9.14,1.85.11,2.78.17s1.14.75,2,.46c.29-.1.59-.33.92-.25s.78.67.56.89c.23.24.79-.22,1-.32a1.41,1.41,0,0,0-.5-.54l1.39.1a3.22,3.22,0,0,1,.8.06c.33.12.17.06.4.49.1-.1.26-.27.21-.44,10.75.82,21.66,1.88,32.12,4.58-.05-.38-.44-2.14-.17-2.19A1.64,1.64,0,0,1,170,149.79Zm-52.36-9.36a1.33,1.33,0,0,0,0,.59l-1.71-.08C116.51,140.71,117,140.26,117.64,140.43Zm-6.16-1.92c-1.2,1,.1,1.14,0,2.22l-2-.09C110.3,140.24,110.15,137.8,111.48,138.51Zm-2.15,1.33c.43.94-.3.8-1,.8A4,4,0,0,0,109.33,139.84Zm-5.24-.79a4,4,0,0,1-.21,1.18c-.18.28-.41.18-.81.18C103.17,139.85,103.23,138.76,104.09,139.05Zm-4.15.4c-.21.41-.15.66-.54.79a2.83,2.83,0,0,1-.76,0A6.81,6.81,0,0,1,99.94,139.45Zm-12.79.11c.21.18,1.11-.05,1.12.26H87A.41.41,0,0,1,87.15,139.56Zm-5.28.05h-.55A.59.59,0,0,1,81.87,139.61Zm-6-.34c1.61.6,2.91-2,4.21,0l.52-.85a2.14,2.14,0,0,0,0,1.1l-2.52-.08C77.63,139.43,76.16,139.64,75.87,139.27ZM67.75,143s.06.13,0,.06S67.72,143,67.75,143Zm-.16,1.16-.09.6C67.21,144.68,67.48,144.27,67.59,144.16Zm-.12.82c-.06,0,.09.12-.06,0S67.43,145,67.47,145ZM82,148.09c-.07-.4.71-.22,1-.22C82.8,148.36,82.42,148.41,82,148.09Zm4.89-.17a1.92,1.92,0,0,1-1,1.76,1.71,1.71,0,0,1-.77.33c-.41,0-.46-.77-.4-1.17.83.48,1-.27,1.38-.75.27-.31.19-.25.67-.25H89C88.34,148.21,87.49,148.62,86.89,147.92Zm3.12.37a1.47,1.47,0,0,0-.05-.46C90.18,147.87,90.09,148.15,90,148.29Zm3.54-.45h.76A.82.82,0,0,1,93.55,147.84Zm8.2,1a1.73,1.73,0,0,0-1.59.52c-.26.23-1.54,1.25-1.43.31.09-.71,1.34.11.35-.84a3.39,3.39,0,0,1,2.15-.88C101.65,148,102.31,148.42,101.75,148.84Zm3-.32a1.8,1.8,0,0,1-1-.53h1.32A2.9,2.9,0,0,1,104.75,148.52Zm63.81,1.72c.14.07.16.26.07.43C168.61,150.53,168.57,150.38,168.56,150.24Z" transform="translate(0.07)" style="fill:#21495b"/><path d="M86.38,216.55l14.35-15.73,2.05-2.25,0,20.34v2.88L88.42,217.2Z" transform="translate(0.07)" style="fill:#fff"/><path d="M139.4,220.55l-2.3-19-.32-2.67,15.41,12.29,2.16,1.72Z" transform="translate(0.07)" style="fill:#fff"/><path d="M138.39,220,128,206.45l-1.52-2-5.18,15.61-.73,2.21,15.64-2Z" transform="translate(0.07)" style="fill:#fff"/><path d="M119.27,222.31l-3.5-16.44-.5-2.34-10.69,14.69L103,220.36Z" transform="translate(0.07)" style="fill:#fff"/><path d="M177.51,202.17c-.56,5.17-5.12,8.81-10,9.9-5.17,1.16-11.19-.3-14.64-4.5a10.05,10.05,0,0,1,.25-13.11c3.58-4.08,9.61-5.41,14.75-4.12C173.26,191.67,178.15,196.3,177.51,202.17Z" transform="translate(0.07)" style="fill:#d5343b"/><path d="M88.56,207.53c-.56,5.17-5.12,8.81-10,9.9-5.17,1.16-11.19-.3-14.64-4.5a10.05,10.05,0,0,1,.25-13.11c3.58-4.07,9.6-5.41,14.74-4.13C84.31,197,89.19,201.65,88.56,207.53Z" transform="translate(0.07)" style="fill:#d5343b"/><path d="M77.3,211c9.35,5.93,19.65,10.58,30.59,12.57a62.7,62.7,0,0,0,25.16-.47,65.22,65.22,0,0,0,19.07-7.78A72.26,72.26,0,0,0,164.45,206c1.18-1.11,2.31-2.26,3.4-3.46.29-.32,1.48-1.3,1.51-1.75,0,0,.05-.06.06-.08l-1.62-.88c-.3-.16-1.43-1-1.77-1-.09,0-.15.2-.23.29-.65.68-1.15,1.58-1.74,2.31a55.2,55.2,0,0,1-25.33,17.38A56.66,56.66,0,0,1,114.84,221c-11.19-1.27-21.89-5.4-31.72-10.76q-2.23-1.22-4.42-2.53" transform="translate(0.07)" style="fill:#21495b"/><path d="M139.4,110.77c-2.95.49-1.3,4.63-.8,7.86C141.21,117.93,140.21,113,139.4,110.77Z" transform="translate(0.07)" style="fill:#21495b"/><path d="M164.41,106.48c-2.95.48-1.3,4.62-.8,7.86C166.21,113.65,165.21,108.72,164.41,106.48Z" transform="translate(0.07)" style="fill:#21495b"/><path d="M99.39,123.63c-2.95.48-1.3,4.63-.8,7.86C101.19,130.8,100.19,125.87,99.39,123.63Z" transform="translate(0.07)" style="fill:#21495b"/><path d="M79.38,115.77c-3,.48-1.3,4.63-.8,7.86C81.18,122.94,80.19,118,79.38,115.77Z" transform="translate(0.07)" style="fill:#21495b"/><path d="M94.39,90.76c-2.95.48-1.3,4.63-.8,7.86C96.19,97.93,95.19,93,94.39,90.76Z" transform="translate(0.07)" style="fill:#21495b"/><path d="M118,93.62c-2.95.49-1.3,4.63-.8,7.86C119.77,100.78,118.77,95.86,118,93.62Z" transform="translate(0.07)" style="fill:#21495b"/><path d="M155.84,126.49c-3,.48-1.3,4.62-.8,7.86C157.64,133.65,156.64,128.72,155.84,126.49Z" transform="translate(0.07)" style="fill:#21495b"/><path d="M195.85,198.66c-3,.48-1.3,4.63-.8,7.86C197.65,205.82,196.65,200.89,195.85,198.66Z" transform="translate(0.07)" style="fill:#21495b"/><path d="M172.27,124.35c-2.95.49-1.3,4.62-.8,7.86C174.07,131.51,173.08,126.58,172.27,124.35Z" transform="translate(0.07)" style="fill:#21495b"/><path d="M50.8,272.25c-3,.48-1.3,4.63-.8,7.86C52.6,279.42,51.6,274.49,50.8,272.25Z" transform="translate(0.07)" style="fill:#21495b"/><path d="M96.53,267.25c-3,.49-1.3,4.63-.8,7.86C98.33,274.42,97.34,269.49,96.53,267.25Z" transform="translate(0.07)" style="fill:#21495b"/><path d="M105.11,235.1c-2.95.49-1.3,4.62-.8,7.86C106.91,242.26,105.91,237.33,105.11,235.1Z" transform="translate(0.07)" style="fill:#21495b"/><path d="M155.84,248c-3,.48-1.3,4.62-.8,7.86C157.64,255.12,156.64,250.19,155.84,248Z" transform="translate(0.07)" style="fill:#21495b"/><path d="M176.56,168.65c-3,.49-1.3,4.63-.8,7.86C178.36,175.81,177.36,170.88,176.56,168.65Z" transform="translate(0.07)" style="fill:#21495b"/><path d="M60.81,163.64c-3,.49-1.3,4.63-.8,7.86C62.61,170.81,61.61,165.88,60.81,163.64Z" transform="translate(0.07)" style="fill:#21495b"/><path d="M50.8,226.52c-3,.49-1.3,4.63-.8,7.86C52.6,233.69,51.6,228.76,50.8,226.52Z" transform="translate(0.07)" style="fill:#21495b"/><path d="M180.85,223c-2.95.48-1.3,4.63-.8,7.86C182.65,230.12,181.65,225.19,180.85,223Z" transform="translate(0.07)" style="fill:#21495b"/><path d="M177.36,255.83c-2.95.49-1.3,4.63-.8,7.86C179.17,263,178.17,258.06,177.36,255.83Z" transform="translate(0.07)" style="fill:#21495b"/><path d="M163.79,228.67c-2.95.49-1.3,4.63-.8,7.86C165.59,235.84,164.59,230.91,163.79,228.67Z" transform="translate(0.07)" style="fill:#21495b"/><path d="M128.06,239.39c-2.95.49-1.3,4.63-.8,7.86C129.86,246.56,128.86,241.63,128.06,239.39Z" transform="translate(0.07)" style="fill:#21495b"/><path d="M83,245.11c-2.95.49-1.3,4.63-.8,7.86C84.85,252.28,83.85,247.34,83,245.11Z" transform="translate(0.07)" style="fill:#21495b"/><path d="M74.47,271.55c-2.95.49-1.3,4.63-.8,7.86C76.27,278.71,75.28,273.78,74.47,271.55Z" transform="translate(0.07)" style="fill:#21495b"/><path d="M68,226.53c-2.95.48-1.3,4.63-.8,7.86C69.84,233.7,68.84,228.77,68,226.53Z" transform="translate(0.07)" style="fill:#21495b"/><path d="M40.89,258c-3,.49-1.3,4.62-.8,7.86C42.69,265.14,41.69,260.21,40.89,258Z" transform="translate(0.07)" style="fill:#21495b"/><path d="M61.61,251.54c-3,.48-1.3,4.63-.8,7.86C63.41,258.71,62.41,253.77,61.61,251.54Z" transform="translate(0.07)" style="fill:#21495b"/><path d="M119.49,265.83c-2.95.49-1.3,4.63-.8,7.86C121.29,273,120.29,268.07,119.49,265.83Z" transform="translate(0.07)" style="fill:#21495b"/><path d="M147.35,270.83c-2.95.49-1.3,4.63-.8,7.86C149.16,278,148.16,273.07,147.35,270.83Z" transform="translate(0.07)" style="fill:#21495b"/><path d="M138.06,183.66c-2.95.48-1.3,4.63-.8,7.86C139.87,190.82,138.87,185.89,138.06,183.66Z" transform="translate(0.07)" style="fill:#21495b"/><path d="M112.34,186.52c-2.95.49-1.3,4.63-.8,7.86C114.14,193.68,113.14,188.75,112.34,186.52Z" transform="translate(0.07)" style="fill:#21495b"/><path d="M73.76,178.66c-2.95.49-1.3,4.62-.8,7.86C75.56,185.82,74.56,180.89,73.76,178.66Z" transform="translate(0.07)" style="fill:#21495b"/><path d="M42.32,192.95c-3,.48-1.3,4.63-.8,7.86C44.12,200.11,43.12,195.18,42.32,192.95Z" transform="translate(0.07)" style="fill:#21495b"/><path d="M59.47,119.35c-3,.49-1.3,4.63-.8,7.86C61.27,126.52,60.27,121.59,59.47,119.35Z" transform="translate(0.07)" style="fill:#21495b"/><path d="M106.63,69.33c-2.95.49-1.3,4.63-.8,7.86C108.43,76.5,107.43,71.57,106.63,69.33Z" transform="translate(0.07)" style="fill:#21495b"/><path d="M130.2,65c-2.95.49-1.3,4.63-.8,7.86C132,72.21,131,67.28,130.2,65Z" transform="translate(0.07)" style="fill:#21495b"/><path d="M145.92,85.77c-2.95.48-1.3,4.63-.8,7.86C147.73,92.93,146.73,88,145.92,85.77Z" transform="translate(0.07)" style="fill:#21495b"/><path d="M118.06,122.21c-2.95.49-1.3,4.63-.8,7.86C119.86,129.37,118.86,124.45,118.06,122.21Z" transform="translate(0.07)" style="fill:#21495b"/><path d="M118.69,27.63,120,30.36l.92,1.87c.1.2.24.72.42.85s.67.1.87.13l2.14.31,3,.44-2.17,2.12-1.49,1.46c-.16.15-.61.45-.68.66s.11.66.15.87l.36,2.13.51,3-2.69-1.42-1.85-1c-.19-.1-.61-.44-.84-.44s-.59.31-.78.41l-1.91,1-2.69,1.42.51-3,.35-2.06c0-.22.23-.72.16-.94s-.48-.47-.63-.61l-1.55-1.51L110,34l3-.44,2.07-.3a2.88,2.88,0,0,0,.94-.14c.17-.12.3-.6.39-.79l1-1.94Z" transform="translate(0.07)" style="fill:#d5343b"/><path d="M61,85.61l1.33-.25L65.73,103c0,.25.34,1,.24,1.26s-.93.29-1.31.36L61.49,88Z" transform="translate(0.07)" style="fill:#6ec0c9"/><path d="M63.94,84.29c.3-.06,1.16-.36,1.34-.19s.15.76.18.93l.85,4.42L68.5,101,69,103.8c-.3.06-1.16.36-1.34.19s-.15-.76-.18-.93l-.85-4.42-2.2-11.51Z" transform="translate(0.07)" style="fill:#6ec0c9"/><path d="M77.07,59.32,88,63.47,77,69.53" transform="translate(0.07)" style="fill:#6ec0c9"/><path d="M77.85,59.91a12.51,12.51,0,0,0-9-8.64A13.35,13.35,0,0,0,56.54,55,12.94,12.94,0,0,0,53.45,67.3c.31,1.11.81,2.15,1.13,3.26a21.58,21.58,0,0,1,.87,4.67c.15,2.45-.11,4.9-2.31,6.41-.8.55-3.71,1.58-4,.09a7.91,7.91,0,0,1,.16-1.79c.06-.74.1-1.48.09-2.22,0-1.09,0-3-1.32-3.41-1.82-.56-1.82,2.2-1.63,3.26-.53-.92-1.72-2.4-2.91-1.53s.14,2.91.81,3.72a2.76,2.76,0,0,0-2.29-.27c-1.06.55-.63,1.77.11,2.36A10.54,10.54,0,0,0,45,83.23q.75.28,1.53.49a5.34,5.34,0,0,1,.87.21c.4.19.36.16.56.63a7.1,7.1,0,0,0,3.89,3.77c2.1.89,4.45.64,6.65.27a23.67,23.67,0,0,0,11.07-5.37c3.28-2.81,5.37-6.78,6.77-10.82.42-1.2.74-2.42,1-3.65A25.52,25.52,0,0,0,78.21,65,13.34,13.34,0,0,0,78,61.2c-.06-.29-.16-.58-.2-.87,0,0,0-.51.06-.3Z" transform="translate(0.07)" style="fill:#d5343b"/><path d="M65.17,74.87a1.28,1.28,0,0,1,.3-.05c.22,3.12-.83,6.65-3.35,8.63a8.73,8.73,0,0,1-3.71,1.64c-.76.15-1.28.51-1.36-.3a9.24,9.24,0,0,1,.73-4.58C59.11,77.2,62.07,75.55,65.17,74.87Z" transform="translate(0.07)" style="fill:#6ec0c9"/><path d="M71.91,58.12c1,1.95,1.8,4.76.53,6.76A5.4,5.4,0,0,1,67.21,67a5.24,5.24,0,0,1-3.53-3.13,11.38,11.38,0,0,1-1-3.21C64,62.88,66.28,65.93,69.2,65c3.14-1,3.23-4.36,2.49-7.14" transform="translate(0.07)" style="fill:#21495b"/><path d="M88,63.47s-7.69,3.4-8.69-.44" transform="translate(0.07)" style="fill:none;stroke:#0d526c;stroke-miterlimit:10;stroke-width:0.75px"/><path d="M193.3,315.5l.53-13.7c.26,0,1.21-.09,1.35.1s0,.89,0,1.06l-.18,4.65-.31,7.94Z" transform="translate(0.07)" style="fill:#d5343b"/><path d="M190.19,315.35l.55-14.24c.29,0,1.22-.09,1.35.11s0,.92,0,1.13l-.19,4.84-.32,8.21Z" transform="translate(0.07)" style="fill:#d5343b"/><path d="M180.56,276l-10.95,4.05,10.95,6.16" transform="translate(0.07)" style="fill:#d5343b"/><path d="M179.72,276.81c-1.1,4.16,0,8.3,1.39,12.27s3.47,8.13,6.79,11a28.79,28.79,0,0,0,8.72,4.86,15.93,15.93,0,0,0,7,.81,7.59,7.59,0,0,0,5.09-3,6.82,6.82,0,0,0,.73-1.29c.13-.31.12-.45.39-.59a5.06,5.06,0,0,1,1-.23,16.67,16.67,0,0,0,3.5-1.32c.84-.43,2.2-1.29,1.45-2.42-.62-.93-1.9-.51-2.73-.17.68-.82,2-2.67.91-3.64s-2.46.59-3,1.49c.18-1,.32-3-.94-3.32-1.45-.4-1.84,1.49-1.94,2.5a22.46,22.46,0,0,0,.06,3.75c0,.31.26,1.16.11,1.43-.27.51-1.66.47-2.11.39-6-1-4.28-9.39-2.78-13.27,1.73-4.48,1.56-9.23-1.43-13.17a13.35,13.35,0,0,0-12-5,11.7,11.7,0,0,0-6.16,2.55,12.35,12.35,0,0,0-2.47,2.76,14.21,14.21,0,0,0-1,1.75,5.07,5.07,0,0,0-.7,1.82s0-.05,0-.07Z" transform="translate(0.07)" style="fill:#21495b"/><path d="M200.29,302.16a8.56,8.56,0,0,1-7.59-5.59,11.9,11.9,0,0,1-.69-4.93C197.06,292.57,201.29,296.79,200.29,302.16Z" transform="translate(0.07)" style="fill:#d5343b"/><path d="M183.33,268.4c2.48-2.22,5.5-4.55,8.76-5.41,4.52-1.2,7.58,3.88,9.37,7.26a34.79,34.79,0,0,1,1.81,4" transform="translate(0.07)" style="fill:#d5343b"/><path d="M204.87,279.61l-20.45-6.21-2.9-.88,1.36-3.2c.08-.19.28-1,.46-1.08s.25.08.31.08a12.21,12.21,0,0,1,2.28.61l3.7,1,8.6,2.29,3.34.89a5.22,5.22,0,0,1,1.66.44c.45.4.58,2,.73,2.56Z" transform="translate(0.07)" style="fill:#fff"/><path d="M195.35,271.4a29.5,29.5,0,0,0-.93,3.76c-.08.41-.35,1-.1,1.27s.62.19.84.25a36.25,36.25,0,0,1,1.17-5Zm6.38,1.69-1-.26c0,1.37,0,2.73,0,4.1,0,.44-.09,1.28.19,1.53a3.26,3.26,0,0,0,.92.29A52.32,52.32,0,0,1,201.73,273.09ZM183,273a3.43,3.43,0,0,0,.68.21s.27.11.32.09.24-.77.28-.88a24.59,24.59,0,0,1,1.53-3.56,2.81,2.81,0,0,0-.76-.2c-.07,0-.18-.09-.24-.06a3.47,3.47,0,0,0-.42.8A29.59,29.59,0,0,0,183,273Zm6.66-3.11a24.35,24.35,0,0,0-.92,3.71c-.08.41-.29.88,0,1.12s.63.19.84.25a28.31,28.31,0,0,1,1.11-4.83Z" transform="translate(0.07)" style="fill:#21495b"/><path d="M191.9,259.33a3.72,3.72,0,1,1,3.21,4.16A3.76,3.76,0,0,1,191.9,259.33Z" transform="translate(0.07)" style="fill:#fff"/><path d="M185.42,277.92a5.71,5.71,0,0,1,7.18-1.48c1.94,1.07,4.07,3.24,4.06,5.61A6.71,6.71,0,0,1,193,287.9a5.51,5.51,0,0,1-6.59-1.58A8,8,0,0,1,185.42,277.92Z" transform="translate(0.07)" style="fill:#fff"/><path d="M185.84,277.06a4,4,0,0,1,6.18-.65c1.85,1.79,1.72,4.23.24,6.24-1.27,1.72-3.64,2.77-5.5,1.3C184.74,282.35,184.83,279.19,185.84,277.06Z" transform="translate(0.07)" style="fill:#21495b"/><g style="clip-path:url(#clip-path)"><path d="M168.67,279.82s9,3.36,10-.48" transform="translate(0.07)" style="fill:none;stroke:#0d526c;stroke-miterlimit:10;stroke-width:0.75px"/></g></g></svg>